<?xml version="1.0" standalone="no"?>
<!DOCTYPE svg PUBLIC "-//W3C//DTD SVG 1.1//EN" "http://www.w3.org/Graphics/SVG/1.1/DTD/svg11.dtd">
<svg xmlns="http://www.w3.org/2000/svg">
<metadata>Copyright (C) 2019 by original authors @ fontello.com</metadata>
<defs>
<font id="fontello" horiz-adv-x="1000" >
<font-face font-family="fontello" font-weight="400" font-stretch="normal" units-per-em="1000" ascent="850" descent="-150" />
<missing-glyph horiz-adv-x="1000" />
<glyph glyph-name="loading" unicode="&#xe800;" d="M897 163c-24-54-58-102-100-142s-92-72-145-92c-54-21-111-31-168-29-57 0-114 12-165 35-52 23-98 56-137 97s-69 88-89 140c-20 51-30 107-28 162 1 55 13 109 36 159 22 50 54 95 93 132s85 66 135 85 103 28 156 27 105-13 153-34 91-52 127-89c36-38 64-82 82-130s27-99 26-150l0 0c0-2 0-3 0-5 0-33 25-61 58-64-9-36-19-70-34-102z m103 171c-1 67-16 134-43 196s-66 117-114 163-105 82-166 107c-61 24-128 36-193 34-65-1-130-16-190-42s-113-64-158-110-80-102-103-161c-23-60-34-124-33-187s15-126 40-184 62-110 107-153 98-77 156-100c58-22 119-33 181-32s122 15 178 39 106 60 148 103c42 43 74 95 96 151 13 34 22 69 27 105 1 0 2 0 4 0 36 0 64 29 64 64-1 3-1 5-1 7l0 0z" horiz-adv-x="1000" />

<glyph glyph-name="ccw" unicode="&#xe801;" d="M532 736q170 0 289-120t119-290-119-290-289-120q-142 0-252 88l70 74q84-60 182-60 126 0 216 90t90 218-90 218-216 90q-124 0-214-87t-92-211l142 0-184-204-184 204 124 0q2 166 122 283t286 117z" horiz-adv-x="940" />

<glyph glyph-name="copy" unicode="&#xe806;" d="M859-151h-575c-22 0-40 18-40 40v776c0 22 18 40 40 40h575c22 0 40-18 40-40v-776c0-22-18-40-40-40z m-36 776h-503v-695h503l0 695 0 0z m-645-512h-77v669c0 38 30 68 68 68l0 0h533v-79h-524v-658l0 0z" horiz-adv-x="1000" />

<glyph glyph-name="edit" unicode="&#xe808;" d="M618 672l203-203c-203-199-409-404-620-614h-201v204c208 207 412 413 618 613l0 0z m49 56l104 104c24 24 63 24 86 0l125-124c24-24 24-62 0-86l-104-104-211 210 0 0z" horiz-adv-x="1000" />

<glyph glyph-name="filter" unicode="&#xe80b;" d="M996 822c8-19 5-36-10-50l-350-350v-527c0-20-9-34-28-42-6-2-12-4-18-4-13 0-23 4-32 13l-182 182c-9 9-13 20-13 32v346l-350 350c-15 14-18 30-10 50 8 18 22 28 42 28h908c21 0 35-9 43-28z" horiz-adv-x="1000" />

<glyph glyph-name="account" unicode="&#xe80f;" d="M499 850c-276 0-499-225-499-501s223-499 499-499 501 223 501 499l0 0c0 276-225 501-501 501l0 0z m0-150c91 0 166-73 166-165 0-91-75-166-166-166s-165 75-165 166l0 0c0 92 74 165 165 165l0 0z m0-783c-87 0-172 31-238 88-16 13-73 73-73 94 0 91 123 189 216 189h192c93 0 217-97 217-189 0-21-58-81-75-94-66-56-150-88-239-88l0 0z" horiz-adv-x="1000" />

<glyph glyph-name="icon_arrow_down_drop" unicode="&#xe814;" d="M525 150c-19-19-37-19-56 0l-313 300c-31 31-31 63 0 94 25 25 63 25 94 0l250-256 256 256c25 25 63 25 94 0 25-25 25-63 0-94l-325-300z" horiz-adv-x="1000" />

<glyph glyph-name="search" unicode="&#xe829;" d="M692 427c0 74-26 138-79 190s-116 79-190 79c-74 0-138-26-190-79-53-53-79-116-79-190s26-138 79-190c53-53 116-79 190-79 74 0 138 26 190 79s79 116 79 190z m308-500c0-21-8-39-23-54-15-15-33-23-54-23-22 0-40 8-54 23l-206 206c-72-50-152-75-240-75-57 0-112 11-164 33-52 22-97 52-135 90-38 38-68 83-90 135-22 52-33 107-33 164 0 57 11 112 33 164 22 52 52 97 90 135 38 38 83 68 135 90 52 22 107 33 164 33 57 0 112-11 164-33 52-22 97-52 135-90 38-38 68-83 90-135 22-52 33-107 33-164 0-88-25-168-75-240l206-206c17-14 24-32 24-53z" horiz-adv-x="1000" />

<glyph glyph-name="down-dir" unicode="&#xe82d;" d="M571 457q0-14-10-25l-250-250q-11-11-25-11t-25 11l-250 250q-11 11-11 25t11 25 25 11h500q14 0 25-11t10-25z" horiz-adv-x="571.4" />

<glyph glyph-name="up-dir" unicode="&#xe82e;" d="M571 171q0-14-10-25t-25-10h-500q-15 0-25 10t-11 25 11 26l250 250q10 10 25 10t25-10l250-250q10-11 10-26z" horiz-adv-x="571.4" />

<glyph glyph-name="icon_barrier" unicode="&#xe839;" d="M831-13l-250 838c-6 19-18 25-37 25h-69c-19 0-31-12-37-25l-238-838 0 0h-94c-18 0-31-18-31-31v-75c0-19 19-31 31-31h813c19 0 31 19 31 31v75c0 19-19 31-31 31h-88l0 0 0 0z m-356 751h75l0 0 56-194 0 0h-187l0 0 56 194 0 0 0 0z m-100-363l0 0h281l0 0 57-194 0 0h-394l56 194z" horiz-adv-x="1000" />

<glyph glyph-name="lasso-select" unicode="&#xe83f;" d="M805 529c0 34 28 62 62 62 35 0 63-28 63-62 0-34-28-62-63-62-34 0-62 28-62 62m-61-360c-35 0-63 27-63 62 0 34 28 61 63 61 34 0 62-27 62-61 0-35-28-62-62-62m-136 62c0-12 2-22 5-33l-236-97c-23 36-61 59-106 62l-75 432c19 10 35 24 47 41l489-108c1-42 20-79 51-104l-20-60c-7 0-13 1-19 1-75 0-136-60-136-134m-344-265c-35 0-62 28-62 62 0 35 27 62 62 62 34 0 62-27 62-62 0-34-28-62-62-62m-129 687c-34 0-62 28-62 62 0 34 28 62 62 62 35 0 62-28 62-62 0-34-27-62-62-62m732-259c75 0 136 60 136 135 0 74-61 135-136 135-43 0-81-21-105-52l-492 108c-3 72-62 130-135 130-74 0-135-60-135-135 0-65 47-120 109-132l76-445c-34-25-57-64-57-110 0-74 61-135 136-135 69 0 126 53 134 121l264 109c23-17 51-27 82-27 74 0 135 60 135 135 0 35-14 67-37 91l24 72c0 0 1 0 1 0" horiz-adv-x="1063" />

<glyph glyph-name="issue" unicode="&#xe840;" d="M994-31l-463 800c-12 25-50 25-62 0l-463-800c-6-13-6-25 0-38 7-12 19-19 32-19h925c12 0 25 7 31 19 6 13 6 25 0 38z m-888 18l394 688 400-688h-794z m394 94c25 0 44 19 44 44s-19 44-44 44-44-19-44-44 19-44 44-44z m44 175v250c6 63-94 63-88 0v-250c-6-56 88-56 88 0z" horiz-adv-x="1000" />

<glyph glyph-name="hazmat" unicode="&#xe844;" d="M637 236c-5 10-18 14-28 9-19-8-41-13-64-13-22 0-44 5-63 13-10 5-23 1-28-9l-156-272c-6-10-2-24 9-30 38-20 125-57 237-58 2 0 3 0 3 0 110 1 199 38 237 58 11 6 15 20 9 30l-156 272z m-252 175c5 45 29 85 63 111 9 7 12 19 6 29l-158 270c-6 11-20 15-31 8-36-24-112-81-168-177 0-1 0-1 0-1-1 0-1-1-1-1-55-97-66-192-68-235 0-13 10-23 22-23l314 0c10 0 20 8 21 19z m610 239c0 0-1 1-1 1 0 0 0 0-1 1-55 96-132 153-168 177-10 7-24 3-31-8l-158-270c-5-10-3-22 6-29 34-26 58-66 63-111 2-11 11-19 22-19l313 0c13 0 23 10 22 23-2 42-12 138-67 235z m-558-257c1-40 22-74 54-93 16-9 35-14 54-14 20 0 39 5 55 14 31 19 53 53 53 93 0 0 0 0 0 0 0 40-22 75-54 94-16 9-34 14-54 14-19 0-38-5-53-14-33-19-54-54-54-94-1 0-1 0-1 0z" horiz-adv-x="1091" />

<glyph glyph-name="icon_-drop" unicode="&#xe8be;" d="M781 138c-18 0-37 6-50 18l-231 232-231-232c-31-31-75-31-100 0-31 32-31 75 0 100l281 282c31 31 75 31 100 0l281-282c32-31 32-75 0-100-12-12-31-18-50-18l0 0z" horiz-adv-x="1000" />

<glyph glyph-name="icon_-visibility" unicode="&#xe8c0;" d="M500-13c-231 0-431 144-500 351 0 6 0 18 0 25 69 212 269 350 500 350 231 0 431-144 500-350 0-7 0-19 0-25-69-213-269-351-500-351l0 0z m-412 363c62-169 225-275 412-275 188 0 350 113 413 275-63 169-225 275-413 275-187 0-350-106-412-275l0 0z m412-237c-131 0-237 106-237 237 0 25 18 44 43 44 25 0 44-19 44-44 0-81 69-150 150-150 81 0 150 69 150 150 0 81-69 150-150 150-25 0-44 19-44 44 0 25 19 44 44 44 131 0 238-107 238-238 0-131-107-237-238-237l0 0z" horiz-adv-x="1000" />

<glyph glyph-name="exit-full-screen" unicode="&#xe8c3;" d="M343 782c-21-1-38-18-38-40l0-197-197-1c-22 0-39-17-40-38l0-3c1-21 18-38 39-39l240 1c15 1 28 10 34 23l0 94 0 177c-6 13-20 23-35 23l-3 0z m-304 68c-10 0-20-4-28-12-16-15-16-41 0-56l273-273c16-16 41-16 57 0 16 16 16 41 0 56l-273 273c-8 8-18 12-29 12 0 0 0 0 0 0z m579-92l0-270c6-14 20-23 36-23l237 0c22 0 40 18 40 40 0 22-17 40-40 40l-197 0 0 197c0 22-18 40-40 40-16 0-30-10-36-24z m313 81l-273-274c-15-15-15-41 0-56 16-16 41-16 57 0l273 273c15 16 15 41 0 57-8 8-18 11-29 11-10 0-20-3-28-11z m-840-607c-13-7-23-20-23-36 0-23 18-41 40-41l197 0 0-197c0-22 18-40 40-40 22 0 40 18 40 40l0 237c0 17-9 31-23 37l-271 0z m194-41l-274-272c-8-8-12-18-12-29 0-10 4-20 12-28 16-16 41-16 57 0l273 273c16 16 16 41 0 56-8 8-18 12-28 12-10 0-21-4-28-12z m352 41c-14-6-23-20-23-37l0-237c0-22 17-40 40-40 22 0 40 18 40 40l0 197 197 0c22 0 40 18 40 41 0 16-10 29-24 36l-270 0z m21-41c-16-15-16-40 0-56l273-273c16-16 41-16 57 0 7 8 11 18 11 28 0 11-4 21-11 29l-274 272c-8 8-18 12-28 12-10 0-21-4-28-12z" horiz-adv-x="1000" />

<glyph glyph-name="food" unicode="&#xe8c4;" d="M809 254l0 570 0 0c0 5-1 11-3 15-7 11-21 14-32 8-93-58-149-158-149-268 0 0 0 0 0 0l0-300c0-26 21-47 47-48l0-310c0-38 31-69 69-69 37 0 68 31 68 69l0 333c0 0 0 0 0 0z m-360 596c-12 0-32-10-32-23l0-260-27 0 0 260c0 13-23 23-36 23-12 0-33-10-33-23l0-260-23 0 0 260c0 13-21 23-34 23-12 0-34-10-34-23l0-331c0-38 31-68 68-68l4 0-32-483c-2-24 7-48 23-65 17-18 40-28 64-28 24 0 48 10 64 28 17 17 25 41 24 65l-33 483 5 0c37 0 67 30 67 68l0 331c0 13-22 23-35 23z" horiz-adv-x="1000" />

<glyph glyph-name="freeze" unicode="&#xe8c5;" d="M394 309l-398 0 0 85 402 0-184 183-151 0 0 86 125 0 0 125 85 0 0-148 186-187 0 397 85 0 0-390 180 180 0 148 85 0 0-125 125 0 0-86-151 0-184-183 397 0 0-85-393 0 188-188 143 0 0-85-123 0-2-2 0-123-85 0 0 156-180 180 0-397-85 0 0 404-186-187 0-156-85 0 0 123-2 2-123 0 0 85 143 0 188 188z" horiz-adv-x="1000" />

<glyph glyph-name="full-screen" unicode="&#xe8c6;" d="M94 463c-23 0-42 17-42 39l0 306c0 21 19 39 42 39l326 0c23 0 42-18 42-39 0-22-19-40-42-40l-284 0 0-266c0-22-18-39-42-39m913 0c-23 0-41 17-41 39l0 266-284 0c-23 0-42 18-42 40 0 21 19 39 42 39l325 0c24 0 42-18 42-39l0-306c0-22-18-39-42-39m-587-551l-326 0c-23 0-42 18-42 39l0 306c0 22 19 39 42 39 24 0 42-17 42-39l0-266 284 0c23 0 42-18 42-40 0-21-19-39-42-39m587 0l-325 0c-23 0-42 18-42 39 0 22 19 40 42 40l284 0 0 266c0 22 18 39 41 39 24 0 42-17 42-39l0-306c0-21-18-39-42-39" horiz-adv-x="1067" />

<glyph glyph-name="refresh-1" unicode="&#xe8cd;" d="M961 140c-22 15-44 8-59-15-66-107-183-176-315-176-191 0-345 153-367 344l59-53c14-16 36-8 58 7 22 16 15 46-7 61l-132 123c-15 15-37 15-51 0l-132-123c-15-15-23-38 0-61 22-23 44-15 58-7l66 61c22-245 220-444 462-444 154 0 301 84 389 222 0 23-7 46-29 61z m198 283c-22 23-44 15-59 8l-58-54c-15 245-213 444-455 444-162 0-301-84-389-222-15-15-7-46 15-61 22-8 44-8 58 15 66 115 184 184 316 184 198 0 352-161 374-360l-59 54c-14 15-44 15-58-8-15-15-15-46 7-61l132-122c15-16 44-16 59 0l132 122c0 15 7 38-15 61z" horiz-adv-x="1176" />

<glyph glyph-name="open-in-new-tab" unicode="&#xe8ce;" d="M994 144c-6-25-25-44-44-50-12-6-12-6-337-6h-325l-13 6c-19 12-37 31-44 50 0 6 0 150 0 325v319l7 12c6 19 25 31 37 44l13 6h318c319 0 319 0 338-6 12-6 19-6 31-19 13-12 13-19 19-31s6-19 6-331c0-232 0-313-6-319z m-375 637h-306v-306-306h306 306v306 306h-306z m225-362c-13-31-50-31-69-6-6 6-6 12-6 81v75l-125-119c-81-81-125-125-131-125-13-6-25-6-32 0-18 6-25 31-18 50 0 6 43 44 125 131l118 125h-75c-68 0-75 0-81 7-12 6-19 18-19 31 0 19 13 31 25 37 7 0 44 0 132 0h118c0 0 19 0 25-6 7-6 13-12 13-19v-125c0 7 0-125 0-137z m-81-513c-7-19-25-31-38-37-12-7-12-7-62-7h-50v38 37h37 38v38 38h37 44c0 0 0-32 0-44 6-44 0-57-6-63z m-282-50h-56v38 37h56 57v-37-38h-57z m-193 0h-57v38 37h57 56v-37-38h-56z m-175 0c-57 0-69 6-88 25-12 19-25 31-25 88v44h38 37v-38-38h38 37v-37-44h-37z m0 694h-38v-37-38h-37-38v50c0 44 0 50 6 63 7 18 25 31 44 37 13 6 19 6 56 6h44v-37-38-6l-37 0z m-75-462h-38v56 56h38 37v-56-56h-37z m0 193h-38v57 56h38 37v-56-57h-37z" horiz-adv-x="1000" />

<glyph glyph-name="icon_cancel-121" unicode="&#xe8d3;" d="M500 850c-275 0-500-225-500-500 0-131 50-256 144-350 94-100 219-150 350-150 275 0 500 225 506 500 0 275-225 500-500 500z m-6-87c100 0 187-38 262-94l-581-581c-62 75-94 162-94 262 0 225 182 413 413 413z m6-832c-100 0-194 38-262 100l575 582c62-75 100-169 100-269 0-225-182-413-413-413z" horiz-adv-x="1000" />

<glyph glyph-name="icon_checkbox_selected" unicode="&#xe8d6;" d="M950 850h-900c-31 0-50-25-50-50v-900c0-31 25-50 50-50h900c31 0 50 25 50 50v900c0 31-25 50-50 50z m-187-381l-269-325c-50-63-88-44-125-6l-119 125c-31 31-25 75 6 106s75 25 107-6l62-63 219 263c25 31 69 37 106 12 31-25 38-69 13-106z" horiz-adv-x="1000" />

<glyph glyph-name="icon_checkbox_unselected" unicode="&#xe8d7;" d="M900 850h-800c-56 0-100-44-100-100v-800c0-56 44-100 100-100h800c56 0 100 44 100 100v800c0 56-44 100-100 100z m-12-888h-782v782h782v-782z" horiz-adv-x="1000" />

<glyph glyph-name="icon_checkmark" unicode="&#xe8d8;" d="M350-88c-25 0-50 13-75 32l-250 262c-38 38-31 100 6 138 38 37 100 31 138-6l175-182 487 588c32 44 94 50 138 12 44-31 50-93 12-137l-562-669c-13-19-38-31-69-38l0 0 0 0z" horiz-adv-x="1000" />

<glyph glyph-name="icon_close" unicode="&#xe8da;" d="M688 350l268 269c57 56 57 131 0 187s-131 57-187 0l-269-268-269 268c-56 57-131 57-187 0s-57-131 0-187l269-269-269-269c-57-56-57-131 0-187 56-57 131-57 187 0l269 269 269-269c56-57 131-57 187 0 57 56 57 131 0 187l-268 269z" horiz-adv-x="1000" />

<glyph glyph-name="icon_delete" unicode="&#xe8de;" d="M938 738h-263c-37 62-100 112-175 112s-144-50-175-112h-262c-25 0-44-19-44-44s25-44 44-44h25l43-719c0-44 38-81 82-81h562c44 0 75 37 81 81l44 719h25c25 0 50 6 50 44 0 25-19 44-37 44z m-438 25c25 0 50-13 69-25h-138c19 18 38 25 69 25z m281-832l-562 6-44 713h650l-44-719z m-437 69c25 0 44 25 37 44l-37 494c0 18-25 37-44 37-19 0-37-19-37-44l37-493c0-19 25-38 44-38z m312 0c19 0 38 19 38 38l31 493c6 25-12 44-37 44-25 6-44-12-44-37l-31-494c0-25 25-44 43-44z m-156 0c25 0 44 19 44 44v494c0 25-19 43-44 43-31 0-44-18-44-43v-494c0-25 13-44 44-44z" horiz-adv-x="1000" />

<glyph glyph-name="icon_download" unicode="&#xe8df;" d="M881 131c-25 0-43-18-43-43v-151h-675v151c0 25-19 43-44 43-25 0-44-18-44-43v-194c0-25 19-44 44-44h762c25 0 44 25 44 44v194c0 25-19 43-44 43z m-400-68c13-7 25-13 38-13 12 0 25 6 37 13l338 243c25 19 31 63 12 88-25 31-62 37-93 19l-238-175v550c0 37-25 62-62 62-38 0-63-25-63-62v-550l-231 175c-31 18-69 12-88-19-25-25-18-63 13-88l337-243z" horiz-adv-x="1000" />

<glyph glyph-name="icon_edit" unicode="&#xe8e3;" d="M956 575c0 13-6 25-12 31l-206 207c-13 6-19 12-32 12s-25-6-31-12l-650-644c-6-6-12-19-12-25l-13-219c0-19 6-31 13-38 12-6 18-12 31-12l225 12c6 0 19 7 25 13l650 644c6 12 12 19 12 31z m-706-613l-94-6c-12 31-31 50-62 63l6 94 513 500 31-32-481-481c-19-19-19-44 0-62 12-7 18-13 31-13 12 0 25 6 31 13l481 481 50-50-506-507z m569 569l-144 144 44 44 144-144-44-44z m137-575h-481c-25 0-44-19-44-44s19-43 44-43h481c32 0 44 25 44 43 0 25-19 44-44 44z" horiz-adv-x="1000" />

<glyph glyph-name="icon_filter" unicode="&#xe8e5;" d="M925 763l-319-350c-12-19-18-32-18-57v-431l-150 163v268c0 19-7 44-19 57l-319 343 825 7m0 87h-837c-32 0-63-19-75-50s-7-69 18-94l294-325c13-18 19-31 19-56v-231c0-19 6-44 19-56l150-163c18-19 37-25 62-25 6 0 19 0 31 6 32 13 57 44 57 81v394c0 19 6 44 18 57l294 325c19 25 31 56 19 93-13 38-31 44-69 44l0 0z" horiz-adv-x="1000" />

<glyph glyph-name="icon_history" unicode="&#xe8ef;" d="M556 788c-225 0-418-169-437-394l-56 44c-13 12-38 12-57-7-12-12-12-37 7-56l125-112c18-19 31-19 50 0l125 112c18 19 31 38 12 56-19 19-37 25-56 7l-63-57c19 182 169 325 357 325 193 0 356-162 356-356s-156-356-356-356c-94 0-175 37-244 100-13 12-25 25-38 44l0 0c-6 12-18 18-31 18-25 0-37-18-37-37 0-6 12-25 12-25 19-25 31-38 50-56 81-76 188-119 300-119 244 0 438 187 425 437-6 232-206 432-444 432z m-12-507c0 0 131-62 156-68 25-7 50 18 50 43 0 19-19 32-44 44l-106 50v225c0 25-19 44-44 44-25 0-43-19-43-44 0 0 0-244 0-250 0-19 6-31 31-44z" horiz-adv-x="1000" />

<glyph glyph-name="icon_information-37" unicode="&#xe8f1;" d="M856 700c-93 94-225 144-356 144-131 0-256-50-350-144-100-94-150-219-150-350s50-256 144-350 219-144 350-144c137 0 256 50 356 138 200 194 200 512 6 706z m-62-637c-75-82-181-126-294-126-112 0-219 50-294 126-81 75-125 181-125 293 0 113 50 219 125 294 75 81 182 125 294 125 113 0 213-44 294-125 162-162 162-425 0-587z m-300 531c-25 0-44-19-44-44 0-25 19-44 44-44s44 19 44 44c0 25-19 44-44 44z m-44-175c0 0 0-250 0-250-6-63 94-63 88 0 0 0 0 250 0 250 6 56-88 56-88 0z" horiz-adv-x="1000" />

<glyph glyph-name="icon_log_out" unicode="&#xe8fb;" d="M500 457c23 0 43 19 43 42v309c0 23-20 42-43 42-23 0-42-19-42-42v-309c0-23 19-42 42-42z m147 259c-23 8-47-4-54-26-8-22 4-46 26-54 145-50 242-187 242-340 0-199-162-361-361-361-198 0-360 162-360 361 0 153 97 289 242 340 22 8 34 32 26 54-8 22-32 34-54 26-179-62-299-231-299-420-1-246 199-446 445-446 246 0 446 200 446 446 0 189-121 357-299 420z" horiz-adv-x="1000" />

<glyph glyph-name="icon_notification" unicode="&#xe902;" d="M956 94l-106 162c-6 13-12 32-12 50v138c0 162-113 294-263 331 0 44-31 75-75 75s-75-31-75-75c-150-31-262-169-262-331v-144c0-19-7-31-13-50l-106-162c-19-32 0-75 37-75h838c37 6 56 43 37 81z m-806 12l81 119c7 13 13 31 13 50v163c0 143 112 250 250 250s250-113 250-250v-169c0-19 6-31 12-50l82-119h-688z m344-256c69 0 131 56 131 131h-250c-6-75 50-131 119-131z" horiz-adv-x="1000" />

<glyph glyph-name="icon_opportunity" unicode="&#xe903;" d="M700-19c0 25-19 44-44 44h-318c-25 0-44-19-44-44 0-25 19-44 44-44h43c-25 0-43-18-43-43 0-25 18-44 43-44h244c19 0 44 19 44 44 0 25-19 43-44 43h38c25 0 37 19 37 44z m-200 869c-187 0-344-156-344-344 0-6 7-162 132-325 12-25 18-75 18-106 0-12 7-44 44-44h306c19 0 38 13 38 44 0 25 0 81 19 106 131 169 131 325 131 325 0 188-156 344-344 344z m-69-444c7 7 13 7 19 19 6-12 13-19 25-19 13 0 19 7 25 19 6-12 13-19 25-19 13 0 19 7 25 19 6-12 13-19 25-19l-37-293h-69l-38 293z m219-175c-31-37-31-81-37-118h-32l44 393-37 7-7-50c-6-7-6-7-12-13-6 13-13 19-25 19s-19-13-25-19c-6 13-13 19-25 19-13 0-19-13-25-19-6 13-13 19-25 19-6 0-13-6-19-13l-6 57-44-7 44-393h-31c0 37-7 75-32 125-106 137-112 268-112 268 0 144 112 263 256 263s263-119 263-263c0-6-7-137-113-275z" horiz-adv-x="1000" />

<glyph glyph-name="icon_pin" unicode="&#xe908;" d="M988 438l-400 393c-13 13-25 13-44 7-19-7-25-25-25-44 0-38 12-75 31-119l-112-106c-69 31-144 44-219 44-31 0-63 0-94-7-19-6-31-6-44-25-6-18 0-37 13-50l262-262-343-344c-19-19-19-44 0-63 12-12 18-12 31-12 12 0 25 6 37 19l338 337 262-262c13-13 19-19 32-19 0 0 6 0 18 0 19 6 25 19 32 37 18 113 6 226-44 326l106 106c44-19 81-31 125-38 13 0 31 13 44 19 12 25 6 50-6 63z m-763 93c119-6 231-56 319-137s131-200 137-319l-456 456z m450-156c-19 31-37 56-62 81-32 25-63 50-94 69l75 75c19-31 44-56 69-87 25-25 50-50 81-69l-69-69z" horiz-adv-x="1000" />

<glyph glyph-name="icon_routes" unicode="&#xe917;" d="M938 163h-769l150 150c19 18 19 43 0 62-19 19-44 19-63 0l-225-225c-18-19-18-44 0-62l225-226c7-6 19-12 32-12 6 0 25 6 31 12 19 19 19 44 0 63l-150 150h769c25 0 43 19 43 44 0 25-18 44-43 44z m-875 375h768l-150-150c-18-19-18-44 0-63 13-6 19-12 32-12 12 0 18 0 31 12l225 225c19 19 19 44 0 63l-225 225c-19 18-44 18-63 0-18-19-18-44 0-63l150-150h-768c-25 0-44-19-44-44 0-25 19-43 44-43z" horiz-adv-x="1000" />

<glyph glyph-name="icon_stop" unicode="&#xe927;" d="M969 469c-19 37-38 69-69 100-25 31-62 50-100 69-37 18-81 25-119 25h-375c-37-7-81-19-118-32-38-18-69-37-100-68s-50-63-69-100-19-75-19-119 13-88 25-119 38-69 69-100c25-31 62-50 100-69 37-18 75-25 119-25h381c37-6 81 7 119 25 37 19 68 38 100 69 31 25 50 63 68 100 13 38 19 75 19 119 0 44-12 81-31 125z m-906-125c0 137 118 256 256 256 144 0 256-112 256-256s-112-256-256-256c-138-7-256 112-256 256z m856-100c-13-31-31-56-56-81s-50-38-82-57c-31-12-62-18-100-18h-181c44 31 69 68 94 112 25 44 31 94 31 144s-6 94-31 137c-25 44-56 82-94 113h188c31 0 68-6 100-19 31-12 56-31 81-56s37-50 56-81c13-32 19-63 19-100s-13-63-25-94z" horiz-adv-x="1000" />

<glyph glyph-name="icon_toggle_on" unicode="&#xe92c;" d="M975 469c-19 37-44 75-69 100-31 31-62 50-100 69-37 18-81 25-118 25h-375c-38 0-82-7-119-25-38-19-75-44-100-69-31-31-50-63-69-100-19-38-25-75-25-119s6-81 25-119 44-75 69-100c31-31 62-50 100-68 37-19 81-25 119-25h375c37 0 81 6 118 25 38 18 75 43 100 68 32 32 50 63 69 100 19 38 25 82 25 119s-6 81-25 119z m-281-375c-144 0-256 112-256 256s112 256 256 256 256-112 256-256-112-256-256-256z" horiz-adv-x="1000" />

<glyph glyph-name="icon_upload" unicode="&#xe932;" d="M881 131c-25 0-43-18-43-43v-151h-675v151c0 25-19 43-44 43-25 0-44-18-44-43v-194c0-25 19-44 44-44h762c25 0 44 19 44 44v194c0 25-19 43-44 43z m-681 363l238 169v-550c0-38 25-63 62-63 38 0 63 25 63 63v550l237-169c25-19 69-13 88 12 18 32 12 69-13 88l-337 244c-13 6-25 12-38 12-12 0-25-6-37-12l-338-244c-25-19-31-56-12-88 18-25 62-31 87-12z" horiz-adv-x="1000" />

<glyph glyph-name="icon_warnning" unicode="&#xe934;" d="M994-31l-463 800c-12 25-50 25-62 0l-463-800c-6-13-6-25 0-38 7-12 19-19 32-19h925c12 0 25 7 31 19 6 13 6 25 0 38z m-494 112c-25 0-44 19-44 44s19 44 44 44 44-19 44-44-19-44-44-44z m44 175c0-56-94-56-88 0v250c-6 63 94 63 88 0v-250z" horiz-adv-x="1000" />

<glyph glyph-name="terminal-2" unicode="&#xe9a2;" d="M983 497l-462 349c-4 0-7 4-11 4-4 0-8 0-12 0-7 0-15 0-23-4l-462-349c-11-12-19-48-7-60 11-11 45-19 56-7l57 43 0-583c0-24 19-40 38-40l682 0c23 0 38 20 38 40l0 587 30-24 31-24c19-12 38-8 49 8 23 20 12 48-4 60z m-184-578l-603 0 0 633 306 216 297-223 0-626z m-110 494c0-24-15-48-41-48l-86 0 0-241c0-34-37-49-62-49-34 0-62 25-62 49l0 241-86 0c-25 0-38 25-38 48 0 24 17 50 38 50 14 0 111 0 292 0 31 0 45-27 45-50z" horiz-adv-x="1000" />

<glyph glyph-name="crew-dataset" unicode="&#xe9a3;" d="M755 287c-86 0-156 86-156 190 0 104 70 191 156 191 87 0 156-87 156-191 0-104-69-190-156-190z m243-434l-485 0c-18 0-35 18-35 35l-9 165c0 60 44 130 96 156 121 43 260 43 381 0 61-26 104-96 95-156l-8-165c-9-17-18-35-35-35z m-659 598c-86 0-156 78-156 182 0 96 70 182 156 182 87 0 156-78 156-182 9-104-60-182-156-182z m815-8c-87 0-156 78-156 182 0 95 69 182 156 182 87 0 156-78 156-182 9-104-69-182-156-182z m-763-364l9-78-303 0c-18 0-35 17-35 34l-9 165c0 61 44 130 96 156 121 43 260 43 381 0 26-17 52-35 61-52-26-9-52-17-78-26-70-35-130-121-122-199z m954 268c52-17 95-95 95-156l-17-156c0-17-18-34-35-34l-286 0 9 86c8 78-52 165-122 191-26 9-60 17-86 26 17 17 34 35 60 43 122 44 260 44 382 0z" horiz-adv-x="1467" />

<glyph glyph-name="locked" unicode="&#xe9a4;" d="M151 468l0 70c0 172 140 312 312 312 172 0 312-140 312-312l0-70 67 0c47 0 84-38 84-85l0-449c0-46-37-84-84-84l-758 0c-46 0-84 38-84 84l0 449c0 47 38 85 84 85l67 0z m84 0l456 0 0 70c0 126-102 228-228 228-126 0-228-102-228-228l0-70z" horiz-adv-x="929" />

<glyph glyph-name="partial-locked" unicode="&#xe9a5;" d="M91 393l0-426 720 0 0 426-720 0z m720-506l-720 0c-44 0-80 36-80 80l0 426c0 45 36 80 80 80l720 0c44 0 80-35 80-80l0-426c0-44-36-80-80-80z m-577 556l-80 0 0 100c0 151 108 285 258 305 165 21 308-95 332-249 4-24-15-46-40-46-19 0-36 15-39 34-17 110-118 193-236 182-112-11-195-112-195-225l0-101z m217-126c-46 0-83-38-83-84 0-31 17-58 43-72l0-94 80 0 0 93c26 15 43 42 43 73 0 46-37 84-83 84" horiz-adv-x="929" />

<glyph glyph-name="unclock" unicode="&#xe9a6;" d="M95 378l0-445 750 0 0 445-750 0z m750-528l-750 0c-46 0-84 37-84 83l0 445c0 46 38 83 84 83l750 0c46 0 83-37 83-83l0-445c0-46-37-83-83-83z m-52 583l-85 0 0 103c0 154 115 292 273 311 175 22 327-96 352-254 4-25-17-47-42-47-21 0-39 15-42 35-18 113-125 198-249 186-120-11-207-115-207-231l0-103z m-335-125c-46 0-83-37-83-83 0-31 18-59 43-73l0-94 80 0 0 94c26 14 44 42 44 73 0 46-38 83-84 83" horiz-adv-x="1357" />

<glyph glyph-name="icons-ruler" unicode="&#xe9a7;" d="M731 848c-3-1-5-1-7-2-6-1-11-4-15-8l-697-697c-11-12-11-30 0-42l237-237c7-6 16-10 25-8 6 1 12 3 17 8l697 697c11 12 11 30 0 42l-237 237c0 1-1 2-2 2-1 1-1 1-1 2-4 2-7 4-11 4-2 1-4 1-6 2z m-1-76l192-191-653-653-192 191 47 47 59-59c7-9 19-13 30-11 2 1 4 2 6 3 1 0 1 1 2 1 2 1 4 2 6 4 1 0 1 0 1 1 2 1 4 3 5 5 9 13 6 31-7 41l-59 58 39 39 58-59c8-9 19-13 31-11 2 1 4 2 6 3 0 0 1 0 2 1 2 1 4 2 6 3 0 1 1 1 1 2 2 1 4 3 5 4 9 14 5 31-7 41l-59 59 38 39 112-113c2-3 5-5 7-6 1-1 2-1 3-2 2-1 4-1 6-2 0 0 1-1 2-1 4-1 8-1 12 0 2 0 4 1 6 2 1 1 2 1 3 1 2 1 4 3 6 4 0 0 0 1 1 1 2 2 3 3 5 5 8 13 5 31-8 41l-111 113 37 37 59-58c8-8 20-11 31-8 6 2 12 6 16 11 9 12 8 30-3 41l-59 59 38 37 58-58c8-8 21-12 32-8 6 2 11 5 15 11 10 12 9 29-2 40l-59 59 37 38 113-112c4-5 10-8 16-10 1 0 2-1 2-1 4-1 8-1 12 0 2 1 4 1 6 2 1 1 2 1 3 2 2 1 4 2 6 3 0 1 1 1 1 1 2 2 3 3 5 5 8 14 5 31-7 41l-113 112 38 38 59-59c7-7 18-10 29-8 2 1 4 1 6 2 1 1 1 1 2 2 2 1 3 2 5 3 7 6 10 14 11 23 0 8-3 17-10 23l-59 58 74 73z" horiz-adv-x="1000" />

<glyph glyph-name="ellipsis-vert" unicode="&#xf142;" d="M214 154v-108q0-22-15-37t-38-16h-107q-23 0-38 16t-16 37v108q0 22 16 38t38 15h107q22 0 38-15t15-38z m0 285v-107q0-22-15-38t-38-15h-107q-23 0-38 15t-16 38v107q0 23 16 38t38 16h107q22 0 38-16t15-38z m0 286v-107q0-22-15-38t-38-16h-107q-23 0-38 16t-16 38v107q0 22 16 38t38 16h107q22 0 38-16t15-38z" horiz-adv-x="214.3" />
</font>
</defs>
</svg>
